<?xml version="1.0" encoding="UTF-8"?> <svg xmlns="http://www.w3.org/2000/svg" width="450" height="450" viewBox="0 0 450 450" fill="none"><g clip-path="url(#clip0_10732_81968)"><path d="M280.799 267.105L280.776 267.076C280.774 267.095 280.769 267.112 280.766 267.13L280.799 267.105ZM266.308 295.001C266.485 294.826 266.659 294.651 266.833 294.474L266.249 294.923L266.308 295.001ZM256.678 302.261L256.795 302.414C258.042 301.659 259.255 300.851 260.431 299.992L260.137 299.609L256.678 302.261ZM277.403 278.671C277.971 277.329 278.481 275.964 278.931 274.579L275.992 276.832L277.403 278.671ZM269.085 287.621L266.431 284.163L269.891 281.512L272.544 284.97L269.085 287.621ZM259.515 294.959L256.861 291.502L260.321 288.85L262.975 292.309L259.515 294.959ZM249.946 302.299L247.292 298.84L250.752 296.189L253.406 299.647L249.946 302.299ZM242.006 308.385L243.823 306.992L241.17 303.534L237.711 306.186L239.761 308.857C239.939 308.824 240.116 308.801 240.295 308.767C240.871 308.653 241.438 308.517 242.006 308.385V308.385ZM274.686 266.3L277.339 269.758L280.766 267.131L280.776 267.077L278.146 263.649L274.686 266.3ZM268.567 270.994L271.221 274.452L267.761 277.103L265.107 273.645L268.567 270.994ZM258.995 278.331L261.649 281.789L258.189 284.441L255.535 280.982L258.995 278.331ZM249.425 285.669L252.079 289.128L248.619 291.779L245.965 288.321L249.425 285.669ZM239.855 293.007L242.508 296.465L239.048 299.116L236.395 295.658L239.855 293.007ZM277.523 258.998L274.87 255.54L278.33 252.889L280.984 256.347L277.523 258.998ZM267.951 266.337L265.298 262.879L268.758 260.227L271.411 263.686L267.951 266.337ZM258.379 273.675L255.726 270.216L259.186 267.565L261.839 271.023L258.379 273.675ZM248.811 281.013L246.158 277.555L249.618 274.904L252.271 278.362L248.811 281.013ZM239.244 288.352L236.59 284.894L240.05 282.243L242.704 285.701L239.244 288.352ZM229.673 295.691L227.02 292.233L230.48 289.581L233.133 293.04L229.673 295.691ZM277.007 242.371L279.66 245.83L276.2 248.481L273.547 245.023L277.007 242.371ZM267.436 249.708L270.089 253.166L266.629 255.818L263.976 252.359L267.436 249.708ZM257.866 257.046L260.52 260.505L257.06 263.156L254.406 259.698L257.866 257.046ZM248.294 264.384L250.947 267.841L247.487 270.493L244.834 267.034L248.294 264.384ZM238.724 271.722L241.377 275.181L237.916 277.831L235.263 274.374L238.724 271.722ZM229.153 279.06L231.807 282.518L228.347 285.169L225.693 281.711L229.153 279.06ZM276.383 237.721L276.772 237.422C276.155 236.08 275.478 234.766 274.745 233.484L273.728 234.263L276.383 237.721ZM266.82 245.051L264.166 241.593L267.626 238.941L270.28 242.4L266.82 245.051ZM257.249 252.389L254.596 248.931L258.056 246.28L260.71 249.738L257.249 252.389ZM247.679 259.729L245.026 256.271L248.486 253.619L251.139 257.078L247.679 259.729ZM238.11 267.068L235.456 263.609L238.916 260.958L241.57 264.416L238.11 267.068ZM228.54 274.405L225.887 270.947L229.347 268.296L232 271.754L228.54 274.405ZM218.97 281.745L216.317 278.286L219.777 275.635L222.43 279.093L218.97 281.745ZM266.306 228.423L268.96 231.882L265.5 234.533L262.846 231.075L266.306 228.423ZM255.943 241.857L253.29 238.399L256.75 235.747L259.404 239.206L255.943 241.857ZM246.375 249.196L243.721 245.738L247.182 243.087L249.835 246.545L246.375 249.196ZM237.592 250.436L240.246 253.894L236.786 256.546L234.132 253.087L237.592 250.436ZM228.023 257.775L230.676 261.233L227.216 263.884L224.563 260.426L228.023 257.775ZM218.451 265.112L221.105 268.57L217.645 271.221L214.991 267.763L218.451 265.112ZM265.796 222.015C264.792 221.048 263.75 220.122 262.67 219.24L265.168 222.495L265.796 222.015ZM256.397 223.732L259.05 227.189L255.59 229.841L252.937 226.382L256.397 223.732ZM246.035 237.166L243.382 233.708L246.842 231.057L249.495 234.515L246.035 237.166ZM237.257 238.407L239.91 241.865L236.45 244.517L233.796 241.058L237.257 238.407ZM227.686 245.745L230.34 249.203L226.88 251.854L224.226 248.396L227.686 245.745ZM218.116 253.082L220.77 256.54L217.309 259.192L214.656 255.733L218.116 253.082ZM207.756 266.521L205.103 263.063L208.563 260.411L211.216 263.87L207.756 266.521ZM254.293 219.301L257.752 216.649L256.389 214.873C255.728 214.481 255.058 214.105 254.38 213.744L251.641 215.844L254.293 219.301ZM245.522 220.536L248.175 223.994L244.715 226.645L242.062 223.187L245.522 220.536ZM235.951 227.873L238.605 231.332L235.145 233.983L232.491 230.525L235.951 227.873ZM226.381 235.212L229.034 238.67L225.574 241.322L222.921 237.863L226.381 235.212ZM216.811 242.55L219.464 246.008L216.003 248.659L213.35 245.201L216.811 242.55ZM207.24 249.887L209.893 253.346L206.433 255.997L203.779 252.539L207.24 249.887ZM244.897 215.888L248.356 213.235L246.04 210.217C245.825 210.148 245.612 210.079 245.395 210.013L242.243 212.429L244.897 215.888ZM236.126 217.122L238.78 220.581L235.32 223.232L232.666 219.774L236.126 217.122ZM225.764 230.559L223.11 227.1L226.571 224.449L229.224 227.907L225.764 230.559ZM216.193 237.897L213.54 234.438L217 231.787L219.654 235.245L216.193 237.897ZM206.625 245.237L203.972 241.778L207.432 239.127L210.085 242.585L206.625 245.237ZM197.054 252.575L194.4 249.117L197.86 246.465L200.514 249.924L197.054 252.575ZM234.02 212.693L237.479 210.041L235.965 208.067C235.037 207.969 234.106 207.897 233.174 207.85L231.367 209.236L234.02 212.693ZM225.251 213.926L227.904 217.385L224.444 220.035L221.79 216.578L225.251 213.926ZM215.679 221.264L218.333 224.723L214.873 227.374L212.219 223.916L215.679 221.264ZM206.11 228.602L208.763 232.06L205.303 234.711L202.65 231.253L206.11 228.602ZM196.538 235.939L199.192 239.397L195.732 242.048L193.078 238.59L196.538 235.939ZM226.351 207.956C225.505 208.026 224.661 208.117 223.82 208.228L224.626 209.28L226.351 207.956ZM215.854 210.512L218.508 213.971L215.048 216.622L212.394 213.164L215.854 210.512ZM206.284 217.85L208.938 221.308L205.478 223.959L202.824 220.501L206.284 217.85ZM196.712 225.187L199.366 228.646L195.906 231.297L193.252 227.839L196.712 225.187ZM189.803 235.98L187.149 232.521L186.442 233.063C185.801 234.157 185.2 235.275 184.641 236.413L186.343 238.632L189.803 235.98Z" fill="#21323F"></path><path d="M206.583 163.509C204.029 159.119 197.362 157.847 193.37 160.99C192.09 161.998 191.034 163.387 189.492 163.909C185.642 165.211 181.981 160.414 177.958 160.994C171.079 161.986 172.92 175.596 166.043 176.602C162.208 177.163 158.926 172.836 155.09 173.387C149.601 174.175 148.819 183.669 143.299 184.203C141.257 184.4 139.354 183.185 137.324 182.894C135.294 182.602 132.661 184.195 133.379 186.115C134.523 191.351 134.364 191.351 135.894 196.263C138.833 205.687 141.402 215.419 149.43 221.169C157.458 226.918 166.047 230.408 175.53 233.158C184.161 235.66 194.141 237.544 203.09 236.719C214.726 235.646 225.25 228.91 233.205 220.354C241.159 211.796 246.897 201.463 252.556 191.242C250.257 193.391 246.442 191.541 244.401 189.146C242.359 186.751 240.631 183.649 237.577 182.887C234.977 182.239 232.157 183.55 229.591 182.774C224.541 181.246 223.71 172.912 218.484 172.184C216.465 171.902 214.385 172.957 212.414 172.441C208.844 171.504 208.439 166.7 206.583 163.509V163.509Z" fill="#FF9F47"></path><path d="M204.356 231.556L202.409 230.634C203.092 219.269 203.035 207.871 202.239 196.514C197.559 199.551 191.78 200.85 186.25 200.108C187.884 210.878 187.995 221.824 186.579 232.624C192.463 231.763 198.411 231.405 204.356 231.556V231.556Z" fill="#FFB4AB"></path><path d="M187.951 308.573L126.198 317.353L116.859 251.719L178.614 242.939L187.951 308.573Z" fill="#6CC2F2"></path><path d="M165.307 206.688L159.879 209.469H166.732L165.307 206.688ZM140.897 219.193H171.718L169.094 214.075H150.887L140.897 219.193ZM121.915 228.918H176.704L174.079 223.8H131.905L121.915 228.918ZM124.483 238.643H181.689L179.065 233.525H121.859L124.483 238.643ZM129.469 248.368H186.675L184.051 243.25H126.845L129.469 248.368ZM134.454 258.094H175.593L185.584 252.974H131.83L134.454 258.094ZM139.44 267.818H156.611L166.601 262.7H136.816L139.44 267.818ZM143.012 274.786L147.619 272.425H141.802L143.012 274.786Z" fill="#6FA8BF"></path><path d="M303.83 152.386C305.622 152.386 307.074 150.935 307.074 149.144C307.074 147.354 305.622 145.902 303.83 145.902C302.038 145.902 300.586 147.354 300.586 149.144C300.586 150.935 302.038 152.386 303.83 152.386Z" fill="#AECD54"></path><path d="M259.586 84.3181L260.574 81.1387L263.755 82.1263L262.766 85.3051L259.586 84.3181Z" fill="#6FA8BF"></path><path d="M277.438 94.3106L280.129 85.6543L288.788 88.3429L286.097 96.9986L277.438 94.3106Z" fill="#FF9F47"></path><path d="M264.641 127.268L267.332 118.611L275.991 121.3L273.3 129.956L264.641 127.268Z" fill="#3281A3"></path><path d="M272.516 102.71C272.447 102.71 272.38 102.69 272.322 102.653C272.264 102.616 272.218 102.563 272.189 102.501C267.944 93.3589 270.562 81.5723 278.278 75.0845C278.351 75.023 278.446 74.9931 278.541 75.0013C278.588 75.0054 278.634 75.0187 278.676 75.0405C278.718 75.0623 278.755 75.0922 278.786 75.1283C278.816 75.1645 278.839 75.2064 278.854 75.2515C278.868 75.2966 278.873 75.344 278.869 75.3911C278.865 75.4383 278.852 75.4841 278.83 75.5261C278.808 75.5681 278.778 75.6053 278.742 75.6358C271.265 81.921 268.73 93.3403 272.843 102.198C272.868 102.253 272.879 102.313 272.874 102.373C272.87 102.433 272.851 102.492 272.819 102.542C272.786 102.593 272.741 102.635 272.689 102.664C272.636 102.694 272.577 102.709 272.516 102.71V102.71ZM304.329 138.04C304.257 138.041 304.187 138.019 304.127 137.979C304.067 137.939 304.021 137.882 303.994 137.815C303.967 137.749 303.961 137.675 303.976 137.605C303.991 137.535 304.027 137.471 304.079 137.421C309.303 132.385 318.467 132.004 324.093 136.587C324.129 136.616 324.16 136.653 324.182 136.695C324.205 136.736 324.219 136.782 324.223 136.829C324.228 136.876 324.224 136.924 324.21 136.969C324.196 137.014 324.174 137.056 324.144 137.093C324.114 137.13 324.077 137.16 324.036 137.182C323.994 137.205 323.949 137.219 323.901 137.224C323.854 137.228 323.807 137.224 323.762 137.21C323.716 137.197 323.674 137.174 323.637 137.145C318.282 132.781 309.554 133.145 304.58 137.94C304.512 138.004 304.423 138.04 304.329 138.04V138.04Z" fill="#21323F"></path><path d="M192.768 208.373C196.084 208.099 199.112 206.301 201.566 204.054C206.785 199.274 209.848 192.223 209.778 185.147C209.756 182.858 209.418 180.558 208.624 178.412C205.839 170.876 196.946 166.186 189.151 168.142C186.104 168.906 183.277 170.57 181.186 172.913C176.96 177.644 176.107 184.564 176.914 190.854C177.469 195.175 178.767 199.513 181.462 202.935C184.157 206.358 188.426 208.732 192.768 208.373V208.373Z" fill="#FFB4AB"></path><path d="M181.547 192.807C183.942 196.194 188.393 196.824 192.541 196.685C196.487 196.555 199.216 194.887 202.334 192.15C200.75 195.39 200.876 196.074 198.646 198.609C196.285 201.292 193.981 202.731 189.733 201.939C188.904 201.785 186.855 200.531 186.204 199.995C183.335 197.641 183.082 196.187 181.547 192.807V192.807Z" fill="white"></path><path d="M180.75 211.88C180.7 211.88 180.651 211.87 180.605 211.85C180.56 211.83 180.519 211.801 180.485 211.765C179.395 210.586 180.371 209.002 181.156 207.73L181.376 207.371C182.554 205.417 182.562 202.788 181.398 200.826C181.264 200.599 181.113 200.373 180.962 200.146C180.366 199.248 179.749 198.32 179.918 197.21C180.059 196.284 180.712 195.554 181.343 194.849C182.06 194.05 182.679 193.358 182.397 192.572C182.235 192.12 181.672 191.785 181.129 191.463C180.37 191.011 179.508 190.499 179.668 189.529C179.878 188.237 181.009 187.533 182.102 186.852C182.55 186.573 182.974 186.308 183.332 186.008C184.127 185.342 183.332 183.712 183.068 183.229C182.906 182.932 182.724 182.644 182.542 182.355C182.109 181.665 181.66 180.951 181.47 180.118C181.085 178.428 181.894 176.491 183.532 175.182C184.918 174.074 186.989 173.374 188.822 172.807C188.868 172.793 188.915 172.788 188.962 172.793C189.009 172.797 189.055 172.811 189.097 172.833C189.139 172.855 189.176 172.885 189.206 172.921C189.236 172.958 189.259 173 189.273 173.045C189.287 173.09 189.292 173.138 189.288 173.185C189.283 173.232 189.269 173.277 189.247 173.319C189.225 173.361 189.195 173.398 189.159 173.428C189.122 173.458 189.08 173.481 189.035 173.495C187.265 174.044 185.269 174.715 183.981 175.745C182.901 176.608 181.779 178.229 182.172 179.959C182.334 180.672 182.732 181.303 183.151 181.971C183.34 182.272 183.531 182.575 183.699 182.885C184.121 183.661 184.975 185.572 183.791 186.562C183.394 186.894 182.93 187.184 182.48 187.464C181.48 188.088 180.534 188.676 180.376 189.647C180.3 190.108 180.751 190.403 181.494 190.844C182.118 191.215 182.824 191.634 183.073 192.33C183.498 193.521 182.675 194.441 181.877 195.331C181.315 195.958 180.735 196.606 180.626 197.319C180.499 198.154 181.014 198.929 181.559 199.748C181.716 199.986 181.874 200.223 182.015 200.46C183.311 202.643 183.3 205.57 181.99 207.743L181.766 208.109C180.931 209.463 180.345 210.556 181.011 211.275C181.059 211.326 181.09 211.39 181.102 211.459C181.114 211.528 181.106 211.599 181.078 211.663C181.05 211.727 181.004 211.782 180.946 211.82C180.888 211.859 180.82 211.88 180.75 211.88V211.88Z" fill="#FF9F47"></path><path d="M321.462 110.217C318.808 110.393 316.475 112.066 313.981 112.992C313.11 113.315 312.002 113.589 311.362 112.917C310.601 112.122 311.223 110.829 311.835 109.913C315.298 104.732 322.386 91.9271 319.436 92.9267C313.104 96.4276 313.145 105.911 307.546 110.492C306.478 110.391 307.178 109.167 307.745 108.255L313.837 98.478C314.849 96.854 315.88 95.2055 317.305 93.929C318.56 92.8039 320.286 91.3725 319.59 89.8376C317.846 89.3408 316.16 90.7097 314.94 92.052C312.655 94.5668 310.686 97.3516 309.078 100.344C307.87 102.593 306.859 104.969 305.313 107.001C304.596 107.943 303.749 108.862 302.955 109.803C302.826 109.624 302.719 109.429 302.637 109.223C302.168 107.994 302.715 106.634 303.254 105.436C305.731 99.9312 311.561 89.1754 310.684 88.9224C307.386 87.9706 301.066 101.02 298.73 108.547C298.451 109.448 298.141 110.387 297.457 111.036C295.327 113.057 292.269 109.42 290.716 106.929C289.163 104.438 285.99 101.21 284.211 102.462C286.917 109.591 293.646 115.685 292.802 123.263C292.303 127.747 289.191 131.434 286.323 134.918C276.358 147.022 270.584 156.989 262.016 170.119C260.878 171.863 256.633 179.132 257.692 180.926C258.355 182.05 259.946 180.73 261.118 181.306C264.496 182.969 267.28 185.807 268.877 189.217C280.246 174.851 286.076 157.03 293.454 140.263C295.171 136.362 297.05 132.404 300.136 129.464C302.493 127.217 305.467 125.657 307.642 123.235C307.928 122.917 308.195 122.573 308.443 122.211C311.474 119.744 315.375 115.589 317.758 114.381C319.512 113.488 323.545 110.078 321.462 110.217V110.217Z" fill="#FFB4AB"></path><path d="M145.133 327.769C147.299 304.494 149.621 281.235 152.096 257.991C153.215 247.482 154.274 235.366 162.076 228.235C168.318 222.528 182.737 222.711 187.3 224.393C187.3 224.393 189.599 229.389 195.948 229.436C199.564 229.462 202.324 226.543 202.779 223.005C210.947 221.804 217.215 221.937 223.456 226.633C242.677 203.859 254.499 184.533 266.043 161.383C270.588 164.263 276.206 167.956 280.752 170.837C268.47 205.128 256.188 230.269 241.353 263.536C239.576 267.524 239.439 280.066 238.849 284.392C238.381 287.828 238.704 291.316 238.915 294.777C239.605 306.163 239.053 317.59 237.27 328.856C235.504 326.502 228.184 325.148 225.253 325.436C222.323 325.724 219.544 326.84 216.67 327.477C207.038 329.607 197.127 326.27 187.275 325.766C173.187 325.046 159.038 330.142 145.133 327.769V327.769Z" fill="#E5E5E5"></path><path d="M195.232 247.15L186.399 238.32L195.232 229.49L204.065 238.32L195.232 247.15ZM195.232 317.089L186.398 308.26L195.232 249.663L204.066 308.26L195.232 317.089Z" fill="#21323F"></path><path d="M250.613 185.313C247.983 185.313 245.498 182.811 244.674 181.89C242.755 179.748 240.595 177.332 237.945 177.715C237.254 177.815 236.607 178.104 235.921 178.411C235.168 178.749 234.391 179.097 233.534 179.182C230.562 179.485 228.375 176.555 227.34 174.784C227.2 174.546 227.062 174.304 226.922 174.061C225.796 172.093 224.63 170.056 222.633 169.28C220.644 168.509 218.434 169.226 216.296 169.921C215.664 170.127 215.01 170.34 214.37 170.512C212.26 171.076 209.851 170.784 208.375 169.783C207.468 169.168 206.926 168.304 206.806 167.284C206.801 167.237 206.805 167.19 206.817 167.144C206.83 167.099 206.852 167.056 206.881 167.019C206.91 166.982 206.947 166.951 206.988 166.928C207.029 166.905 207.074 166.89 207.121 166.884C207.168 166.879 207.216 166.882 207.261 166.895C207.307 166.908 207.35 166.93 207.387 166.959C207.424 166.988 207.455 167.024 207.478 167.066C207.501 167.107 207.516 167.152 207.522 167.199C207.618 168.017 208.041 168.685 208.779 169.186C210.072 170.064 212.294 170.324 214.183 169.815C214.805 169.65 215.449 169.439 216.073 169.236C218.329 168.501 220.663 167.741 222.893 168.609C225.129 169.477 226.358 171.625 227.547 173.702C227.686 173.944 227.823 174.184 227.961 174.42C228.91 176.042 230.89 178.715 233.462 178.464C234.201 178.389 234.893 178.08 235.626 177.752C236.326 177.438 237.051 177.113 237.841 176.999C240.869 176.562 243.27 179.241 245.198 181.394C246.145 182.452 249.415 185.738 252.195 184.172C252.278 184.125 252.377 184.113 252.469 184.139C252.561 184.165 252.639 184.226 252.686 184.309C252.733 184.392 252.745 184.491 252.719 184.583C252.694 184.675 252.633 184.753 252.549 184.8C251.96 185.138 251.293 185.316 250.613 185.313V185.313ZM175.18 178.54C177.981 171.614 184.539 166.162 191.969 165.363C199.399 164.564 207.285 168.864 210.036 175.808C200.157 183.106 186.074 184.208 175.18 178.54V178.54Z" fill="#FF9F47"></path><path d="M261.285 326.434C262.297 325.993 263.059 325.288 263.07 324.207C262.736 323.093 253.274 323.362 248.376 322.94C245.186 322.665 241.919 322.395 238.825 323.224C237.434 323.597 236.074 324.187 234.692 324.579C234.387 324.515 234.083 324.447 233.78 324.375C237.955 323.029 243.461 320.856 243.124 318.954C241.587 317.381 236.201 319.181 234.148 319.972C230.454 321.396 227.426 321.99 224.544 322.81C221.521 322.69 217.994 322.771 215.179 323.492C200.193 327.331 184.404 324.389 169.219 321.436L147.031 317.121C148.47 322.774 147.666 327.527 149.105 333.18C159.195 332.94 170.868 334.156 180.576 333.18C187.813 332.452 195.109 329.705 202.177 331.419C206.654 332.505 210.897 334.548 215.463 335.159C222.819 336.145 230.56 333.356 237.597 335.717C243.475 337.69 248.529 341.793 254.568 340.385C256.85 339.852 243.324 333.837 236.726 331.118C241.396 328.646 246.978 330.713 252.262 330.746C257.451 330.779 263.485 331.997 267.352 328.396C268.015 327.195 265.423 326.704 261.285 326.434V326.434Z" fill="#FFB4AB"></path><path d="M148.86 314.209C162.193 316.731 170.295 317.073 183.638 319.216C183.839 324.089 184.719 328.911 186.25 333.542C165.168 334.108 153.689 334.084 132.644 334.022C125.076 333.301 125.745 312.488 127.119 301.535C128.527 290.316 138.832 275.957 142.373 265.219C147.111 250.847 148.718 247.537 157.869 233.519C159.529 230.973 162.756 225.239 165.436 226.674C163.202 234.208 161.66 243.11 159.426 250.644C155.063 265.355 154.319 262.143 153.545 277.467C153.184 284.615 151.271 299.186 148.861 306.284C148.776 306.533 148.601 314.16 148.86 314.209V314.209Z" fill="#E5E5E5"></path><path d="M164.719 262.336H185.62V273.143H164.719V262.336Z" fill="white"></path><path d="M297.948 327.922C297.863 327.922 297.781 327.893 297.717 327.838C297.652 327.783 297.608 327.708 297.594 327.624C296.572 321.764 291.566 316.567 284.841 314.386C278.152 312.214 270.994 313.044 265.505 314.008C265.459 314.016 265.411 314.016 265.364 314.006C265.318 313.996 265.274 313.976 265.235 313.949C265.196 313.922 265.163 313.887 265.138 313.847C265.113 313.807 265.096 313.762 265.088 313.715C265.072 313.621 265.093 313.525 265.148 313.446C265.203 313.368 265.287 313.315 265.381 313.298C270.952 312.321 278.224 311.483 285.064 313.702C292.04 315.965 297.238 321.382 298.305 327.501C298.314 327.553 298.311 327.606 298.297 327.657C298.284 327.708 298.259 327.755 298.225 327.795C298.191 327.835 298.148 327.867 298.101 327.889C298.053 327.911 298.001 327.923 297.948 327.922V327.922ZM228.439 285.298C228.359 285.298 228.282 285.272 228.219 285.223C225.899 283.426 224.523 280.395 224.539 277.115C224.556 273.834 225.961 270.817 228.298 269.043C228.731 268.714 229.193 268.419 229.64 268.133C230.409 267.641 231.136 267.177 231.734 266.554C234.355 263.821 233.387 259.814 232.363 255.572C231.347 251.359 230.296 247.005 233.06 243.935C234.049 242.836 235.371 242.153 236.65 241.491L237.094 241.26C241.475 238.968 247.149 233.64 244.827 228.351C244.484 227.57 243.99 226.875 243.467 226.14C242.89 225.328 242.293 224.489 241.924 223.527C240.744 220.457 242.252 217.014 244.269 214.964C246.446 212.752 249.416 211.454 252.035 210.309C252.122 210.278 252.217 210.28 252.302 210.316C252.386 210.352 252.454 210.419 252.491 210.504C252.528 210.588 252.531 210.683 252.5 210.77C252.468 210.857 252.405 210.928 252.323 210.97C249.763 212.089 246.862 213.356 244.781 215.469C242.926 217.356 241.529 220.498 242.595 223.268C242.932 224.146 243.476 224.911 244.053 225.722C244.574 226.454 245.112 227.212 245.485 228.061C247.74 233.198 243.138 238.911 237.425 241.899L236.977 242.13C235.756 242.761 234.492 243.414 233.592 244.415C231.081 247.204 232.043 251.186 233.06 255.402C234.084 259.646 235.143 264.035 232.249 267.051C231.592 267.736 230.794 268.247 230.023 268.74C229.588 269.018 229.138 269.305 228.728 269.617C226.568 271.255 225.269 274.06 225.254 277.118C225.24 280.176 226.511 282.993 228.655 284.653C228.714 284.7 228.757 284.763 228.778 284.834C228.799 284.905 228.798 284.981 228.774 285.052C228.751 285.122 228.706 285.184 228.646 285.228C228.586 285.272 228.514 285.297 228.439 285.298V285.298Z" fill="#21323F"></path></g><g clip-path="url(#clip1_10732_81968)"><path d="M214.708 193.494H213.945V182.367H214.708C217.796 182.367 220.299 184.858 220.299 187.931C220.299 191.003 217.796 193.494 214.708 193.494Z" fill="#21323F"></path><path d="M204.955 204.684H198.822C198.67 204.684 198.525 204.624 198.417 204.517C198.31 204.411 198.25 204.266 198.25 204.115C198.25 203.964 198.31 203.819 198.417 203.713C198.525 203.606 198.67 203.546 198.822 203.546H204.955C210.264 203.546 214.583 199.248 214.583 193.966V191.667C214.583 191.516 214.643 191.371 214.751 191.264C214.858 191.158 215.003 191.098 215.155 191.098C215.307 191.098 215.452 191.158 215.559 191.264C215.666 191.371 215.727 191.516 215.727 191.667V193.966C215.727 199.876 210.894 204.684 204.955 204.684Z" fill="#21323F"></path><path d="M195.642 206.428H198.45C198.998 206.428 199.523 206.212 199.91 205.827C200.297 205.441 200.514 204.919 200.514 204.374C200.514 203.83 200.297 203.307 199.91 202.922C199.523 202.537 198.998 202.32 198.45 202.32H195.642C195.095 202.32 194.57 202.537 194.183 202.922C193.796 203.307 193.578 203.83 193.578 204.374C193.578 204.919 193.796 205.441 194.183 205.827C194.57 206.212 195.095 206.428 195.642 206.428V206.428Z" fill="#21323F"></path><path d="M211.661 196.781C210.819 196.781 210.011 196.448 209.415 195.855C208.819 195.263 208.484 194.459 208.484 193.62V182.241C208.484 181.403 208.819 180.599 209.415 180.006C210.011 179.413 210.819 179.08 211.661 179.08C212.504 179.08 213.312 179.413 213.907 180.006C214.503 180.599 214.838 181.403 214.838 182.241V193.62C214.838 194.035 214.756 194.446 214.596 194.83C214.436 195.214 214.202 195.562 213.907 195.855C213.612 196.149 213.262 196.382 212.877 196.541C212.491 196.699 212.078 196.781 211.661 196.781Z" fill="#21323F"></path><path d="M172.521 193.494H173.283V182.367H172.521C169.433 182.367 166.93 184.858 166.93 187.931C166.93 191.003 169.433 193.494 172.521 193.494Z" fill="#21323F"></path><path d="M175.567 196.781C176.41 196.781 177.218 196.448 177.814 195.855C178.409 195.263 178.744 194.459 178.744 193.62V182.241C178.744 181.403 178.409 180.599 177.814 180.006C177.218 179.413 176.41 179.08 175.567 179.08C174.725 179.08 173.917 179.413 173.321 180.006C172.725 180.599 172.391 181.403 172.391 182.241V193.62C172.391 194.035 172.473 194.446 172.632 194.83C172.792 195.214 173.026 195.562 173.321 195.855C173.616 196.149 173.966 196.382 174.352 196.541C174.737 196.699 175.15 196.781 175.567 196.781V196.781Z" fill="#21323F"></path><path d="M215.916 187.676C215.613 187.676 215.322 187.557 215.107 187.343C214.893 187.13 214.772 186.84 214.772 186.538V170.704C214.772 161.71 207.419 154.393 198.38 154.393H188.82C179.781 154.393 172.428 161.71 172.428 170.704V186.413C172.428 186.563 172.398 186.711 172.341 186.849C172.283 186.987 172.199 187.112 172.093 187.218C171.987 187.324 171.861 187.407 171.722 187.465C171.583 187.522 171.434 187.551 171.284 187.551C171.134 187.551 170.985 187.522 170.847 187.465C170.708 187.407 170.582 187.324 170.476 187.218C170.369 187.112 170.285 186.987 170.228 186.849C170.17 186.711 170.141 186.563 170.141 186.413V170.704C170.141 160.455 178.52 152.117 188.82 152.117H198.38C208.68 152.117 217.06 160.455 217.06 170.704V186.538C217.06 186.84 216.939 187.13 216.725 187.343C216.51 187.557 216.219 187.676 215.916 187.676V187.676Z" fill="#BFBFBF"></path></g><g clip-path="url(#clip2_10732_81968)"><path d="M130.489 333.613H295.617V374.06H185.957L130.489 333.613Z" fill="#BFBFBF"></path><path d="M164.294 340.914L161.708 335.842L156.644 338.432L159.231 343.505L164.294 340.914ZM189.727 342.367L187.141 337.296L182.077 339.885L184.662 344.957L189.727 342.367ZM182.541 356.051L176.646 352.125L172.728 358.029L178.621 361.956L182.541 356.051Z" fill="white"></path><path d="M301.883 291.771H185.956V374.06H301.883V291.771Z" fill="#BFBFBF"></path><path d="M254.094 333.678L248.974 323.637L238.95 328.765L244.069 338.805L254.094 333.678Z" fill="#6FA8BF"></path></g><g clip-path="url(#clip3_10732_81968)"><path d="M313.211 182.037H353.807V190.673H313.211V182.037Z" fill="#6FA8BF"></path><path d="M309.656 173.613L309.9 230.877H361.615L361.372 173.613H309.656ZM328.717 183.488H322.869V177.707H328.717V183.488H328.717ZM348.456 183.488H342.607V177.707H348.456V183.488Z" fill="#CCDFE8"></path><path d="M325.792 180.491C324.862 180.491 324.109 179.747 324.109 178.829V170.001C324.109 169.082 324.863 168.338 325.792 168.338C326.721 168.338 327.474 169.082 327.474 170.001V178.829C327.474 179.747 326.721 180.491 325.792 180.491ZM345.531 180.491C344.602 180.491 343.848 179.747 343.848 178.829V170.001C343.848 169.082 344.602 168.338 345.531 168.338C346.46 168.338 347.213 169.082 347.213 170.001V178.829C347.213 179.747 346.46 180.491 345.531 180.491V180.491Z" fill="#FF9F47"></path><path d="M325.492 190.316H333.67V194.189H325.492V190.316ZM337.602 190.316H345.781V194.189H337.602V190.316Z" fill="white"></path><path d="M349.711 190.316H357.889V194.189H349.711V190.316Z" fill="#6CC2F2"></path><path d="M313.383 198.951H321.561V202.824H313.383V198.951ZM325.493 198.951H333.671V202.824H325.493V198.951ZM337.603 198.951H345.782V202.824H337.603V198.951Z" fill="white"></path><path d="M349.711 198.951H357.889V202.824H349.711V198.951Z" fill="#6CC2F2"></path><path d="M313.383 207.588H321.561V211.461H313.383V207.588ZM325.493 207.588H333.671V211.461H325.493V207.588ZM337.603 207.588H345.782V211.461H337.603V207.588Z" fill="white"></path><path d="M349.711 207.588H357.889V211.461H349.711V207.588Z" fill="#6CC2F2"></path><path d="M313.383 216.225H321.561V220.097H313.383V216.225ZM325.493 216.225H333.671V220.097H325.493V216.225ZM337.603 216.225H345.782V220.097H337.603V216.225Z" fill="white"></path></g><g clip-path="url(#clip4_10732_81968)"><path d="M349.452 268.496C344.536 272.605 340.844 293.917 340.844 314.724C340.844 335.532 344.535 352.902 349.452 357.012C354.368 352.903 358.06 335.532 358.06 314.724C358.06 293.917 354.368 272.605 349.452 268.496Z" fill="#6FA8BF"></path><path d="M335.235 282.322C330.852 286.975 329.768 308.566 332.289 329.226C334.809 349.886 340.58 366.703 345.959 370.209C350.342 365.556 351.903 347.878 349.382 327.218C346.861 306.558 340.613 285.829 335.235 282.322Z" fill="#E1F6FF"></path><path d="M360.026 375.001H330.514C329.47 375.001 328.469 374.594 327.731 373.87C326.993 373.146 326.578 372.164 326.578 371.14V338.326H363.96V371.141C363.96 372.165 363.546 373.147 362.808 373.871C362.07 374.594 361.069 375.001 360.026 375.001V375.001Z" fill="#0D6385"></path></g><g clip-path="url(#clip5_10732_81968)"><path d="M103.097 348.666V364.957H87V348.666H103.097ZM95.0486 361.916C97.8343 361.916 100.092 359.63 100.092 356.811C100.092 353.992 97.8343 351.707 95.0486 351.707C92.2628 351.707 90.0049 353.992 90.0049 356.811C90.0049 359.631 92.2631 361.916 95.0486 361.916Z" fill="#BFBFBF"></path><path d="M112.996 348.666H132.609L125.103 374.763H100.889L93.3828 348.666H112.996Z" fill="#EDEDED"></path><path d="M95.75 356.885L100.892 374.762H125.105L130.247 356.885H95.75Z" fill="#F8F8F8"></path><path d="M128.936 360.119L124.829 374.396H101.161L97.0547 360.119H128.936Z" fill="#21323F"></path><path d="M131.703 348.666L131.48 349.524L124.467 373.905H101.525L94.5123 349.524L94.2807 348.666H93.3828L100.889 374.763H125.103L132.609 348.666H131.703Z" fill="#BFBFBF"></path><path d="M122.587 372.213C122.609 372.249 122.609 372.249 122.595 372.307C122.56 372.328 122.56 372.328 122.502 372.314C122.481 372.278 122.481 372.278 122.495 372.22C122.53 372.198 122.566 372.177 122.587 372.213ZM121.435 371.436C121.399 371.458 121.421 371.494 121.442 371.53C121.464 371.566 121.5 371.544 121.535 371.522C121.571 371.501 121.549 371.464 121.527 371.428C121.471 371.414 121.435 371.436 121.435 371.436ZM124.411 371.336C124.375 371.358 124.397 371.394 124.397 371.394C124.419 371.43 124.454 371.408 124.454 371.408C124.49 371.386 124.468 371.35 124.468 371.35C124.482 371.292 124.446 371.314 124.411 371.336ZM123.714 370.179C123.679 370.201 123.701 370.237 123.701 370.237C123.722 370.273 123.758 370.251 123.758 370.251L123.772 370.193C123.75 370.157 123.714 370.179 123.714 370.179ZM122.982 369.045C122.947 369.067 122.969 369.103 122.969 369.103C122.99 369.139 123.026 369.117 123.026 369.117C123.062 369.095 123.04 369.059 123.04 369.059C123.04 369.059 123.018 369.023 122.982 369.045ZM119.764 373.705C119.751 373.763 119.786 373.741 119.808 373.778C119.843 373.756 119.843 373.756 119.879 373.733L119.836 373.661L119.764 373.705ZM123.198 372.332C123.184 372.39 123.206 372.426 123.228 372.462C123.285 372.476 123.321 372.454 123.357 372.432C123.371 372.374 123.349 372.338 123.327 372.302C123.269 372.288 123.234 372.31 123.198 372.332ZM121.536 371.523C121.522 371.581 121.544 371.617 121.566 371.653C121.623 371.667 121.659 371.645 121.695 371.623C121.708 371.565 121.687 371.529 121.665 371.493C121.586 371.443 121.55 371.465 121.536 371.523ZM119.887 370.656C119.873 370.714 119.895 370.75 119.917 370.786C119.974 370.8 120.01 370.778 120.046 370.756C120.06 370.698 120.038 370.662 120.016 370.625C119.937 370.575 119.901 370.598 119.887 370.656ZM118.239 369.789C118.225 369.847 118.246 369.883 118.269 369.919C118.326 369.933 118.361 369.911 118.397 369.889C118.411 369.831 118.39 369.795 118.368 369.759C118.289 369.709 118.217 369.753 118.239 369.789ZM124.787 368.626C124.752 368.648 124.716 368.67 124.737 368.706C124.759 368.742 124.781 368.778 124.816 368.756C124.852 368.734 124.888 368.712 124.866 368.676C124.88 368.618 124.823 368.604 124.787 368.626ZM124.222 366.793C124.187 366.815 124.151 366.837 124.173 366.873C124.194 366.909 124.216 366.945 124.252 366.923C124.287 366.902 124.323 366.879 124.302 366.843C124.28 366.807 124.258 366.771 124.222 366.793ZM123.644 365.019C123.608 365.04 123.573 365.063 123.594 365.099C123.616 365.135 123.638 365.171 123.673 365.149C123.709 365.127 123.745 365.105 123.723 365.069C123.737 365.011 123.68 364.997 123.644 365.019ZM123.494 370.464C123.458 370.486 123.444 370.544 123.466 370.58C123.488 370.616 123.545 370.631 123.581 370.608C123.617 370.586 123.631 370.528 123.609 370.492C123.587 370.456 123.53 370.442 123.494 370.464ZM122.287 369.028C122.251 369.05 122.237 369.108 122.259 369.144C122.28 369.18 122.338 369.194 122.374 369.172C122.409 369.15 122.423 369.092 122.401 369.056C122.38 369.02 122.322 369.006 122.287 369.028ZM121.079 367.591C121.043 367.613 121.029 367.671 121.051 367.708C121.073 367.744 121.13 367.758 121.166 367.736C121.201 367.714 121.215 367.656 121.194 367.619C121.172 367.583 121.115 367.569 121.079 367.591ZM119.871 366.155C119.836 366.177 119.822 366.235 119.843 366.271C119.865 366.307 119.923 366.322 119.958 366.299C119.994 366.277 120.008 366.219 119.986 366.183C119.965 366.147 119.907 366.133 119.871 366.155ZM124.443 370.82C124.408 370.842 124.43 370.878 124.451 370.914C124.473 370.95 124.508 370.928 124.544 370.907C124.58 370.885 124.558 370.849 124.536 370.813C124.479 370.798 124.443 370.82 124.443 370.82ZM123.439 369.804C123.404 369.825 123.426 369.862 123.447 369.898C123.469 369.933 123.505 369.911 123.54 369.89C123.576 369.868 123.554 369.832 123.532 369.796C123.497 369.818 123.439 369.804 123.439 369.804ZM122.435 368.787C122.4 368.809 122.422 368.845 122.443 368.881C122.465 368.917 122.5 368.895 122.536 368.873C122.572 368.851 122.55 368.815 122.528 368.779C122.493 368.801 122.435 368.787 122.435 368.787ZM121.432 367.771C121.396 367.792 121.418 367.829 121.439 367.865C121.461 367.9 121.497 367.879 121.532 367.857C121.568 367.835 121.546 367.799 121.524 367.763C121.489 367.784 121.467 367.748 121.432 367.771ZM122.212 372.89L122.256 372.962C122.291 372.94 122.327 372.918 122.327 372.918L122.283 372.846L122.212 372.89ZM120.806 372.914L120.85 372.986C120.885 372.965 120.921 372.942 120.921 372.942L120.877 372.87C120.82 372.856 120.784 372.878 120.806 372.914ZM119.379 372.902L119.422 372.975C119.458 372.953 119.494 372.93 119.494 372.93L119.45 372.858C119.393 372.844 119.379 372.902 119.379 372.902ZM124.562 368.17C124.526 368.192 124.526 368.192 124.512 368.25C124.533 368.286 124.533 368.286 124.591 368.3C124.626 368.278 124.626 368.278 124.641 368.22C124.619 368.184 124.562 368.17 124.562 368.17ZM124.001 366.831C123.965 366.853 123.965 366.853 123.951 366.911C123.973 366.947 123.973 366.947 124.03 366.961C124.066 366.939 124.066 366.939 124.08 366.881C124.058 366.845 124.036 366.809 124.001 366.831ZM123.461 365.528C123.425 365.549 123.425 365.549 123.411 365.608C123.433 365.644 123.433 365.644 123.49 365.658C123.526 365.636 123.526 365.636 123.54 365.578C123.519 365.542 123.496 365.506 123.461 365.528ZM123.128 371.483C123.092 371.504 123.114 371.541 123.171 371.555C123.193 371.591 123.229 371.569 123.243 371.511C123.278 371.489 123.256 371.453 123.199 371.438C123.177 371.403 123.142 371.424 123.128 371.483ZM121.804 370.911C121.768 370.933 121.79 370.969 121.847 370.983C121.869 371.019 121.905 370.997 121.919 370.939C121.954 370.917 121.933 370.881 121.875 370.867L121.804 370.911ZM120.502 370.376C120.467 370.398 120.488 370.434 120.546 370.448C120.567 370.484 120.603 370.462 120.617 370.404C120.653 370.382 120.631 370.346 120.574 370.332L120.502 370.376ZM119.236 369.818C119.201 369.84 119.222 369.876 119.28 369.89C119.301 369.926 119.337 369.904 119.351 369.846C119.387 369.824 119.365 369.788 119.308 369.774C119.25 369.76 119.214 369.782 119.236 369.818ZM124.726 370.151C124.726 370.151 124.712 370.209 124.726 370.151C124.748 370.187 124.769 370.223 124.783 370.165C124.783 370.165 124.783 370.165 124.726 370.151C124.726 370.151 124.762 370.129 124.726 370.151ZM124.12 369.633C124.106 369.69 124.106 369.69 124.12 369.633C124.141 369.669 124.163 369.705 124.177 369.647C124.163 369.705 124.177 369.646 124.12 369.633ZM123.5 369.172C123.5 369.172 123.464 369.194 123.5 369.172C123.521 369.208 123.543 369.244 123.557 369.186L123.5 369.172C123.5 369.172 123.535 369.15 123.5 369.172ZM124.236 371.94L124.257 371.976L124.293 371.954L124.271 371.918C124.25 371.882 124.236 371.94 124.236 371.94ZM123.454 372.025L123.476 372.061L123.511 372.039L123.49 372.003L123.454 372.025ZM122.673 372.11L122.694 372.146L122.73 372.125L122.708 372.089L122.673 372.11ZM124.865 368.429C124.865 368.429 124.851 368.487 124.865 368.429C124.851 368.487 124.908 368.501 124.908 368.501C124.944 368.48 124.944 368.48 124.865 368.429C124.9 368.407 124.922 368.443 124.865 368.429ZM124.509 367.756C124.509 367.756 124.473 367.778 124.509 367.756C124.495 367.814 124.552 367.829 124.552 367.829C124.53 367.792 124.566 367.77 124.509 367.756C124.545 367.734 124.545 367.734 124.509 367.756ZM123.955 370.823L123.977 370.86L124.012 370.838L123.991 370.802C123.933 370.788 123.933 370.788 123.955 370.823ZM123.187 370.604L123.208 370.64L123.244 370.618L123.222 370.582L123.187 370.604ZM122.418 370.384L122.439 370.42L122.475 370.398L122.453 370.362L122.418 370.384ZM124.82 368.11C124.784 368.132 124.806 368.168 124.827 368.204C124.849 368.24 124.885 368.218 124.92 368.196C124.956 368.174 124.934 368.138 124.913 368.102C124.877 368.124 124.855 368.088 124.82 368.11ZM123.865 367.013C123.83 367.035 123.851 367.071 123.873 367.107C123.895 367.143 123.93 367.121 123.966 367.099C124.001 367.078 123.98 367.041 123.958 367.005C123.937 366.969 123.879 366.955 123.865 367.013ZM122.925 365.858C122.889 365.88 122.911 365.916 122.933 365.952C122.954 365.988 122.99 365.966 123.026 365.944C123.061 365.922 123.039 365.886 123.018 365.85C122.961 365.836 122.961 365.836 122.925 365.858ZM121.949 364.725C121.914 364.747 121.935 364.783 121.957 364.819C121.979 364.855 122.014 364.833 122.05 364.811C122.085 364.79 122.064 364.753 122.042 364.718C122.042 364.718 121.985 364.703 121.949 364.725ZM123.829 370.207L123.873 370.279C123.909 370.257 123.944 370.235 123.944 370.235L123.901 370.163C123.844 370.149 123.808 370.171 123.829 370.207ZM122.337 370.087L122.38 370.159C122.416 370.138 122.452 370.115 122.452 370.115L122.408 370.043C122.386 370.007 122.372 370.065 122.337 370.087ZM120.901 369.981L120.945 370.053L121.016 370.009L120.972 369.937C120.915 369.923 120.88 369.945 120.901 369.981ZM119.444 369.839L119.488 369.911C119.523 369.889 119.559 369.867 119.559 369.867L119.516 369.795C119.458 369.78 119.422 369.802 119.444 369.839ZM125.174 365.364C125.139 365.385 125.103 365.408 125.125 365.443C125.146 365.48 125.168 365.516 125.204 365.494C125.239 365.472 125.275 365.45 125.253 365.414C125.232 365.378 125.21 365.342 125.174 365.364ZM124.698 363.922C124.663 363.944 124.627 363.967 124.649 364.002C124.67 364.039 124.692 364.075 124.728 364.053C124.763 364.031 124.799 364.009 124.778 363.973C124.791 363.915 124.756 363.936 124.698 363.922ZM124.28 362.495C124.244 362.517 124.208 362.539 124.23 362.575C124.252 362.611 124.274 362.647 124.309 362.625C124.345 362.604 124.38 362.581 124.359 362.545C124.337 362.509 124.301 362.531 124.28 362.495ZM124.749 369.294C124.713 369.316 124.735 369.352 124.792 369.366C124.814 369.402 124.849 369.38 124.863 369.322C124.899 369.3 124.877 369.264 124.82 369.25C124.82 369.25 124.784 369.272 124.749 369.294ZM123.453 368.606C123.417 368.628 123.439 368.664 123.496 368.678C123.518 368.714 123.554 368.692 123.567 368.634C123.603 368.612 123.581 368.576 123.524 368.562L123.453 368.606ZM122.121 367.94C122.086 367.961 122.107 367.998 122.165 368.012C122.186 368.048 122.222 368.026 122.236 367.968C122.272 367.946 122.25 367.91 122.193 367.896C122.193 367.896 122.157 367.918 122.121 367.94ZM120.847 367.288C120.812 367.31 120.834 367.346 120.891 367.36C120.912 367.396 120.948 367.374 120.962 367.316C120.998 367.294 120.976 367.258 120.919 367.244C120.897 367.208 120.861 367.23 120.847 367.288ZM119.552 366.6C119.516 366.622 119.538 366.658 119.595 366.672C119.617 366.708 119.652 366.686 119.666 366.628C119.702 366.606 119.68 366.57 119.623 366.556C119.565 366.542 119.53 366.564 119.552 366.6ZM123.221 371.475C123.242 371.511 123.264 371.547 123.3 371.525C123.335 371.503 123.371 371.481 123.35 371.445C123.328 371.409 123.306 371.373 123.271 371.395C123.235 371.417 123.221 371.475 123.221 371.475ZM121.833 371.935C121.854 371.971 121.876 372.007 121.912 371.985C121.947 371.963 121.983 371.941 121.962 371.905C121.94 371.869 121.918 371.833 121.882 371.855C121.847 371.877 121.833 371.935 121.833 371.935ZM120.408 372.416C120.43 372.452 120.452 372.488 120.487 372.467C120.523 372.445 120.559 372.422 120.537 372.387C120.515 372.351 120.494 372.314 120.458 372.336C120.422 372.358 120.422 372.358 120.408 372.416ZM119.02 372.876C119.041 372.912 119.063 372.948 119.099 372.926C119.134 372.904 119.17 372.882 119.149 372.846C119.127 372.81 119.105 372.774 119.069 372.796C119.034 372.818 119.034 372.818 119.02 372.876ZM125.699 364.446C125.699 364.446 125.663 364.467 125.685 364.504C125.685 364.504 125.707 364.54 125.743 364.518C125.743 364.518 125.778 364.496 125.756 364.459C125.734 364.423 125.734 364.423 125.699 364.446ZM124.444 367.648C124.444 367.648 124.43 367.706 124.465 367.684C124.501 367.662 124.522 367.698 124.501 367.662C124.501 367.662 124.515 367.604 124.479 367.626L124.444 367.648ZM123.615 367.167C123.615 367.167 123.602 367.225 123.637 367.203C123.637 367.203 123.694 367.217 123.673 367.182C123.673 367.182 123.686 367.124 123.651 367.145L123.615 367.167ZM122.787 366.687C122.787 366.687 122.773 366.745 122.809 366.723C122.809 366.723 122.866 366.737 122.844 366.701C122.844 366.701 122.858 366.643 122.823 366.665L122.787 366.687ZM124.179 369.893C124.179 369.893 124.2 369.929 124.236 369.907C124.272 369.885 124.272 369.885 124.25 369.849C124.25 369.849 124.228 369.813 124.193 369.835C124.193 369.835 124.157 369.857 124.179 369.893ZM123.241 370.124C123.241 370.124 123.262 370.16 123.298 370.138C123.298 370.138 123.334 370.117 123.312 370.08C123.312 370.08 123.29 370.044 123.254 370.066C123.276 370.102 123.241 370.124 123.241 370.124ZM122.324 370.392C122.324 370.392 122.346 370.428 122.382 370.406C122.382 370.406 122.417 370.384 122.395 370.348C122.395 370.348 122.374 370.312 122.338 370.334L122.324 370.392ZM124.901 366.374C124.865 366.396 124.887 366.432 124.887 366.432C124.909 366.469 124.944 366.446 124.944 366.446C124.98 366.425 124.958 366.388 124.958 366.388C124.937 366.352 124.901 366.374 124.901 366.374ZM124.293 365.609C124.258 365.631 124.279 365.667 124.279 365.667C124.301 365.704 124.337 365.681 124.337 365.681C124.372 365.66 124.351 365.623 124.351 365.623C124.351 365.623 124.329 365.587 124.293 365.609ZM123.743 364.858C123.708 364.88 123.73 364.916 123.73 364.916C123.751 364.952 123.787 364.93 123.787 364.93C123.822 364.908 123.801 364.872 123.801 364.872C123.779 364.836 123.743 364.858 123.743 364.858ZM124.516 368.744L124.537 368.78L124.573 368.758L124.551 368.722L124.516 368.744ZM123.604 368.612L123.625 368.648L123.661 368.627L123.639 368.591L123.604 368.612ZM122.656 368.502L122.678 368.538L122.713 368.517L122.692 368.481C122.67 368.444 122.634 368.466 122.656 368.502ZM121.708 368.393L121.73 368.429L121.766 368.407L121.744 368.371C121.722 368.334 121.722 368.334 121.708 368.393ZM124.245 371.141C124.266 371.177 124.302 371.155 124.302 371.155C124.338 371.133 124.316 371.097 124.316 371.097C124.294 371.061 124.259 371.083 124.259 371.083C124.223 371.105 124.245 371.141 124.245 371.141ZM123.467 371.72C123.488 371.756 123.524 371.734 123.524 371.734C123.56 371.712 123.538 371.676 123.538 371.676C123.516 371.64 123.481 371.662 123.481 371.662L123.467 371.72ZM122.746 372.313C122.768 372.349 122.804 372.327 122.804 372.327C122.839 372.305 122.817 372.269 122.817 372.269C122.796 372.233 122.76 372.255 122.76 372.255C122.725 372.277 122.725 372.277 122.746 372.313ZM126.144 363.477C126.109 363.499 126.073 363.521 126.095 363.557C126.116 363.593 126.138 363.629 126.174 363.607C126.209 363.586 126.245 363.563 126.223 363.528C126.202 363.491 126.18 363.455 126.144 363.477ZM125.854 362.02C125.819 362.042 125.783 362.064 125.805 362.1C125.826 362.136 125.848 362.172 125.884 362.15C125.919 362.128 125.955 362.106 125.933 362.07C125.912 362.034 125.89 361.998 125.854 362.02V362.02ZM125.565 360.563C125.53 360.584 125.494 360.607 125.516 360.643C125.537 360.679 125.559 360.715 125.595 360.693C125.63 360.671 125.666 360.649 125.644 360.613C125.658 360.555 125.601 360.541 125.565 360.563ZM124.535 366.254C124.499 366.275 124.521 366.312 124.543 366.348C124.564 366.383 124.6 366.362 124.635 366.34C124.671 366.318 124.649 366.282 124.628 366.246C124.606 366.21 124.549 366.195 124.535 366.254ZM123.338 365.405C123.302 365.427 123.324 365.463 123.346 365.499C123.367 365.535 123.403 365.513 123.439 365.491C123.474 365.469 123.452 365.433 123.431 365.397C123.374 365.383 123.316 365.369 123.338 365.405ZM122.106 364.579C122.07 364.601 122.092 364.637 122.114 364.673C122.135 364.709 122.171 364.687 122.206 364.665C122.242 364.643 122.22 364.607 122.199 364.571C122.177 364.535 122.142 364.557 122.106 364.579ZM120.91 363.731C120.874 363.752 120.896 363.789 120.917 363.825C120.939 363.861 120.975 363.839 121.01 363.817C121.046 363.795 121.024 363.759 121.002 363.723C120.945 363.709 120.91 363.731 120.91 363.731ZM124.119 368.492C124.141 368.528 124.163 368.564 124.198 368.543C124.234 368.521 124.27 368.499 124.248 368.463C124.226 368.427 124.205 368.39 124.169 368.412C124.133 368.434 124.119 368.492 124.119 368.492ZM122.679 368.785C122.701 368.822 122.723 368.858 122.759 368.836C122.794 368.814 122.83 368.792 122.808 368.756C122.787 368.72 122.765 368.684 122.729 368.705C122.693 368.727 122.658 368.75 122.679 368.785ZM121.239 369.078C121.261 369.114 121.283 369.15 121.319 369.129C121.354 369.107 121.39 369.085 121.368 369.049C121.347 369.013 121.325 368.976 121.289 368.998C121.253 369.02 121.253 369.02 121.239 369.078ZM119.836 369.349C119.857 369.385 119.879 369.421 119.915 369.399C119.95 369.378 119.986 369.355 119.964 369.319C119.943 369.283 119.921 369.247 119.885 369.269C119.849 369.291 119.814 369.313 119.836 369.349ZM125.005 364.675C124.969 364.697 124.991 364.733 125.012 364.769C125.034 364.805 125.07 364.783 125.105 364.761C125.141 364.739 125.119 364.703 125.119 364.703C125.097 364.667 125.04 364.653 125.005 364.675V364.675ZM124.207 363.432C124.172 363.454 124.193 363.49 124.215 363.526C124.237 363.562 124.272 363.54 124.308 363.518C124.343 363.496 124.322 363.46 124.322 363.46C124.3 363.424 124.243 363.41 124.207 363.432V363.432ZM123.432 362.225C123.396 362.247 123.418 362.283 123.439 362.319C123.461 362.355 123.497 362.333 123.532 362.311C123.568 362.289 123.546 362.253 123.525 362.217C123.467 362.203 123.446 362.167 123.432 362.225ZM122.634 360.982C122.598 361.004 122.62 361.04 122.62 361.04C122.642 361.076 122.677 361.054 122.677 361.054C122.713 361.032 122.691 360.996 122.67 360.96L122.634 360.982ZM124.872 367.384C124.858 367.442 124.88 367.478 124.916 367.456C124.973 367.47 125.009 367.448 124.987 367.412C125.001 367.354 124.979 367.318 124.943 367.34C124.922 367.303 124.886 367.326 124.872 367.384ZM123.421 367.089C123.407 367.147 123.429 367.183 123.465 367.161C123.522 367.175 123.522 367.175 123.536 367.117C123.55 367.059 123.55 367.059 123.492 367.045C123.471 367.009 123.435 367.031 123.421 367.089ZM122.006 366.772C121.992 366.83 122.014 366.866 122.05 366.844C122.107 366.858 122.107 366.858 122.121 366.8C122.135 366.742 122.113 366.706 122.077 366.728C122.02 366.714 121.984 366.736 122.006 366.772ZM120.555 366.477C120.541 366.535 120.563 366.571 120.599 366.549C120.656 366.563 120.691 366.542 120.67 366.505C120.684 366.447 120.662 366.411 120.626 366.433C120.604 366.397 120.569 366.419 120.555 366.477ZM119.14 366.16C119.126 366.218 119.147 366.254 119.183 366.232C119.24 366.246 119.24 366.246 119.254 366.188C119.268 366.13 119.247 366.094 119.211 366.116L119.14 366.16ZM123.971 369.872C123.992 369.909 124.028 369.886 124.028 369.886C124.063 369.865 124.042 369.828 124.042 369.828C124.02 369.792 123.984 369.814 123.949 369.836L123.971 369.872ZM122.764 370.716C122.786 370.752 122.821 370.73 122.857 370.708C122.892 370.686 122.871 370.65 122.871 370.65C122.849 370.614 122.813 370.636 122.813 370.636C122.72 370.643 122.742 370.68 122.764 370.716V370.716ZM121.536 371.523C121.557 371.559 121.593 371.537 121.629 371.515C121.664 371.493 121.643 371.457 121.621 371.421C121.599 371.385 121.564 371.407 121.528 371.429C121.514 371.487 121.514 371.487 121.536 371.523ZM120.308 372.33C120.329 372.366 120.365 372.344 120.365 372.344C120.4 372.322 120.379 372.286 120.357 372.25C120.335 372.214 120.3 372.236 120.264 372.258L120.308 372.33V372.33ZM125.864 364.393C125.864 364.393 125.828 364.415 125.864 364.393C125.85 364.451 125.907 364.465 125.907 364.465C125.943 364.444 125.921 364.407 125.864 364.393C125.899 364.371 125.899 364.371 125.864 364.393ZM125.407 363.634C125.371 363.656 125.371 363.656 125.407 363.634C125.393 363.692 125.45 363.707 125.45 363.707C125.428 363.67 125.464 363.648 125.407 363.634C125.407 363.634 125.442 363.612 125.407 363.634ZM124.914 362.897C124.914 362.897 124.878 362.919 124.914 362.897C124.9 362.956 124.957 362.97 124.957 362.97C124.971 362.911 124.971 362.911 124.914 362.897C124.95 362.875 124.95 362.875 124.914 362.897ZM124.749 366.122L124.771 366.158L124.806 366.136L124.785 366.1C124.763 366.063 124.727 366.085 124.749 366.122ZM123.851 365.932L123.872 365.968L123.908 365.946L123.886 365.91L123.851 365.932ZM123.011 365.756L123.032 365.792L123.068 365.77L123.046 365.734C123.024 365.698 122.989 365.72 123.011 365.756ZM125.143 368.159C125.143 368.159 125.164 368.195 125.143 368.159C125.2 368.173 125.214 368.115 125.214 368.115C125.157 368.101 125.157 368.101 125.143 368.159C125.121 368.123 125.121 368.123 125.143 368.159ZM124.357 368.643C124.379 368.679 124.414 368.657 124.357 368.643C124.414 368.657 124.428 368.599 124.428 368.599L124.357 368.643C124.357 368.643 124.392 368.622 124.357 368.643ZM123.629 369.141C123.651 369.178 123.686 369.156 123.629 369.141C123.686 369.155 123.7 369.097 123.7 369.097C123.7 369.097 123.678 369.062 123.629 369.141C123.629 369.141 123.643 369.084 123.629 369.141ZM126.505 361.718C126.505 361.718 126.47 361.74 126.492 361.776C126.492 361.776 126.513 361.812 126.549 361.79C126.549 361.79 126.585 361.768 126.563 361.732C126.527 361.754 126.505 361.718 126.505 361.718ZM125.525 365.296C125.525 365.296 125.511 365.354 125.547 365.332C125.547 365.332 125.604 365.346 125.582 365.31C125.582 365.31 125.596 365.252 125.561 365.274C125.583 365.31 125.525 365.296 125.525 365.296ZM124.79 364.807C124.79 364.807 124.777 364.865 124.812 364.843C124.812 364.843 124.869 364.857 124.848 364.822C124.848 364.822 124.861 364.764 124.826 364.786L124.79 364.807ZM124.056 364.319C124.056 364.319 124.042 364.377 124.077 364.355C124.077 364.355 124.134 364.369 124.113 364.333C124.113 364.333 124.127 364.275 124.091 364.297L124.056 364.319ZM123.334 363.772C123.334 363.772 123.321 363.83 123.356 363.808C123.356 363.808 123.413 363.822 123.392 363.786C123.392 363.786 123.405 363.728 123.37 363.75L123.334 363.772ZM125.142 367.019C125.142 367.019 125.164 367.055 125.199 367.033C125.199 367.033 125.235 367.011 125.213 366.975C125.213 366.975 125.192 366.939 125.156 366.961C125.178 366.997 125.178 366.997 125.142 367.019ZM124.311 367.184C124.311 367.184 124.333 367.22 124.368 367.198C124.368 367.198 124.404 367.177 124.382 367.14C124.382 367.14 124.361 367.104 124.325 367.126C124.29 367.148 124.29 367.148 124.311 367.184ZM123.423 367.335C123.423 367.335 123.444 367.371 123.48 367.349C123.48 367.349 123.516 367.328 123.494 367.291C123.494 367.291 123.472 367.255 123.437 367.277L123.423 367.335ZM122.556 367.523C122.556 367.523 122.578 367.559 122.613 367.537C122.613 367.537 122.649 367.515 122.627 367.479C122.627 367.479 122.606 367.443 122.57 367.465C122.57 367.465 122.535 367.487 122.556 367.523ZM125.334 364.571C125.355 364.607 125.391 364.585 125.391 364.585C125.391 364.585 125.369 364.549 125.334 364.571C125.312 364.535 125.369 364.549 125.334 364.571ZM124.636 364.308C124.658 364.344 124.658 364.344 124.636 364.308C124.658 364.344 124.693 364.321 124.693 364.321C124.729 364.299 124.729 364.299 124.636 364.308C124.672 364.285 124.672 364.285 124.636 364.308ZM125.442 366.785C125.464 366.821 125.464 366.821 125.442 366.785C125.499 366.799 125.499 366.799 125.477 366.763C125.477 366.762 125.477 366.762 125.442 366.785ZM124.791 367.087C124.813 367.123 124.813 367.123 124.791 367.087C124.848 367.101 124.848 367.101 124.827 367.065L124.791 367.087ZM125.641 363.291C125.605 363.313 125.627 363.35 125.641 363.291L125.663 363.327C125.698 363.306 125.698 363.306 125.641 363.291C125.641 363.291 125.676 363.269 125.641 363.291ZM125.114 362.823L125.136 362.859C125.172 362.837 125.15 362.801 125.114 362.823C125.092 362.787 125.15 362.801 125.114 362.823ZM125.477 365.623C125.499 365.659 125.499 365.659 125.477 365.623L125.535 365.637C125.57 365.615 125.513 365.601 125.477 365.623C125.477 365.623 125.513 365.601 125.477 365.623ZM124.767 365.664C124.789 365.7 124.789 365.7 124.767 365.664L124.825 365.678C124.861 365.656 124.839 365.62 124.767 365.664C124.767 365.664 124.803 365.642 124.767 365.664ZM124.057 365.705C124.057 365.705 124.079 365.741 124.057 365.705L124.115 365.719C124.129 365.661 124.129 365.661 124.057 365.705C124.057 365.705 124.071 365.647 124.057 365.705ZM125.902 363.725L125.924 363.761L125.959 363.739L125.938 363.703C125.88 363.689 125.88 363.689 125.902 363.725ZM125.027 363.818L125.049 363.854L125.084 363.833L125.063 363.797C125.042 363.76 125.006 363.782 125.027 363.818ZM125.104 365.654C125.162 365.668 125.197 365.646 125.176 365.61C125.118 365.596 125.118 365.596 125.104 365.654C125.083 365.618 125.083 365.618 125.104 365.654Z" fill="white"></path></g><defs><clipPath id="clip0_10732_81968"><rect width="207.366" height="265.673" fill="white" transform="translate(116.859 75)"></rect></clipPath><clipPath id="clip1_10732_81968"><rect width="53.3698" height="54.3102" fill="white" transform="translate(166.93 152.117)"></rect></clipPath><clipPath id="clip2_10732_81968"><rect width="171.395" height="82.2882" fill="white" transform="matrix(-1 0 0 1 301.883 291.771)"></rect></clipPath><clipPath id="clip3_10732_81968"><rect width="51.9591" height="62.5391" fill="white" transform="translate(309.656 168.338)"></rect></clipPath><clipPath id="clip4_10732_81968"><rect width="37.3824" height="106.504" fill="white" transform="translate(326.578 268.496)"></rect></clipPath><clipPath id="clip5_10732_81968"><rect width="45.6112" height="26.0971" fill="white" transform="translate(87 348.666)"></rect></clipPath></defs></svg> 